# xmcd
#
# Track frame offsets: 
#        150
#        17414
#        31593
#        46159
#        64031
#        86144
#        101010
#        116237
#        133947
#        148124
#        171119
#        194274
#        218979
#        234899
#        250952
#        262601
#        282895
#        301066
#
# Disc length: 4262 seconds
#
# Revision: 2
# Processed by: cddbd v1.5.2PL0 Copyright (c) Steve Scherf et al.
# Submitted via: ExactAudioCopyFreeDBPlugin 1.0
#
DISCID=f310a412
DTITLE=Various Artist - Philadelphia International Records:  The 40th
DTITLE=Anniversary Box Set
DYEAR=2012
DGENRE=Soul
TTITLE0=Billy Paul - Let's Make a Baby
TTITLE1=The O'Jays - Now That We Found Love
TTITLE2=The Jacksons - Blues Away
TTITLE3=Dee Dee Sharp - I Believe in Love
TTITLE4=Teddy Pendergrass - Easy, Easy, Got to Take it Easy
TTITLE5=Jean Carn - I Bet She Won't Love You Like I Do
TTITLE6=The O'Jays - Used Ta Be My Girl
TTITLE7=The Jacksons - Strength of One Man
TTITLE8=Low Rawls - See You When I Get There
TTITLE9=Teddy Pendergrass - Only You
TTITLE10=Jean Carn - Intro - My Love Don't Come Easy
TTITLE11=Bunny Sigler - Come On and Dance Dance Dance
TTITLE12=The Jones Girls - This Feeling's Killing Me
TTITLE13=Billy Paul - Let 'Em In
TTITLE14=Bunny Sigler - Picture Us
TTITLE15=The Jones Girls - Life Goes On
TTITLE16=Lou Rawls - Lady Love
TTITLE17=Archie Bell and The Drells - Where Will We Go When the Party is
TTITLE17=Over?
EXTD=YEAR: 2012
EXTT0=
EXTT1=
EXTT2=
EXTT3=
EXTT4=
EXTT5=
EXTT6=
EXTT7=
EXTT8=
EXTT9=
EXTT10=
EXTT11=
EXTT12=
EXTT13=
EXTT14=
EXTT15=
EXTT16=
EXTT17=
PLAYORDER=
